<mxfile host="app.diagrams.net" modified="2023-10-06T10:28:21.065Z" agent="Mozilla/5.0 (Macintosh; Intel Mac OS X 10_15_7) AppleWebKit/537.36 (KHTML, like Gecko) Chrome/117.0.0.0 Safari/537.36" etag="crQDKqHklqaHLSC9V8Bu" version="21.2.3" type="device">
  <diagram name="Page-1" id="ylSby2IFqSAbWUKDZ_E5">
    <mxGraphModel dx="1434" dy="797" grid="1" gridSize="10" guides="1" tooltips="1" connect="1" arrows="1" fold="1" page="1" pageScale="1" pageWidth="2339" pageHeight="3300" math="0" shadow="0">
      <root>
        <mxCell id="0" />
        <mxCell id="1" parent="0" />
        <mxCell id="0dHqTh75lFJwIoMNK_Vf-53" value="Utilisateur" style="shape=umlActor;verticalLabelPosition=bottom;verticalAlign=top;html=1;outlineConnect=0;" parent="1" vertex="1">
          <mxGeometry x="775" y="430" width="30" height="60" as="geometry" />
        </mxCell>
        <mxCell id="0dHqTh75lFJwIoMNK_Vf-54" value="" style="endArrow=none;dashed=1;html=1;rounded=0;entryX=0.5;entryY=0.5;entryDx=0;entryDy=0;entryPerimeter=0;" parent="1" target="0dHqTh75lFJwIoMNK_Vf-53" edge="1">
          <mxGeometry width="50" height="50" relative="1" as="geometry">
            <mxPoint x="790" y="800" as="sourcePoint" />
            <mxPoint x="795" y="520" as="targetPoint" />
          </mxGeometry>
        </mxCell>
        <mxCell id="0dHqTh75lFJwIoMNK_Vf-55" value="system" style="rounded=0;whiteSpace=wrap;html=1;" parent="1" vertex="1">
          <mxGeometry x="960" y="440" width="120" height="60" as="geometry" />
        </mxCell>
        <mxCell id="0dHqTh75lFJwIoMNK_Vf-56" value="" style="endArrow=none;dashed=1;html=1;rounded=0;entryX=0.5;entryY=0.5;entryDx=0;entryDy=0;entryPerimeter=0;" parent="1" source="0dHqTh75lFJwIoMNK_Vf-57" edge="1">
          <mxGeometry width="50" height="50" relative="1" as="geometry">
            <mxPoint x="1022.1299999999997" y="1099.6100000000001" as="sourcePoint" />
            <mxPoint x="1017.5" y="500" as="targetPoint" />
          </mxGeometry>
        </mxCell>
        <mxCell id="0dHqTh75lFJwIoMNK_Vf-57" value="" style="html=1;points=[];perimeter=orthogonalPerimeter;outlineConnect=0;targetShapes=umlLifeline;portConstraint=eastwest;newEdgeStyle={&quot;edgeStyle&quot;:&quot;elbowEdgeStyle&quot;,&quot;elbow&quot;:&quot;vertical&quot;,&quot;curved&quot;:0,&quot;rounded&quot;:0};" parent="1" vertex="1">
          <mxGeometry x="1010" y="590" width="18" height="210" as="geometry" />
        </mxCell>
        <mxCell id="0dHqTh75lFJwIoMNK_Vf-58" value="" style="endArrow=classic;html=1;rounded=0;" parent="1" target="0dHqTh75lFJwIoMNK_Vf-57" edge="1">
          <mxGeometry width="50" height="50" relative="1" as="geometry">
            <mxPoint x="791" y="590" as="sourcePoint" />
            <mxPoint x="841" y="540" as="targetPoint" />
          </mxGeometry>
        </mxCell>
        <mxCell id="0dHqTh75lFJwIoMNK_Vf-59" value="1 : Validation du bouton commenter ()" style="edgeLabel;html=1;align=center;verticalAlign=middle;resizable=0;points=[];" parent="0dHqTh75lFJwIoMNK_Vf-58" vertex="1" connectable="0">
          <mxGeometry x="0.3152" y="-3" relative="1" as="geometry">
            <mxPoint x="-34" y="-12" as="offset" />
          </mxGeometry>
        </mxCell>
        <mxCell id="0dHqTh75lFJwIoMNK_Vf-60" value="serveur" style="rounded=0;whiteSpace=wrap;html=1;" parent="1" vertex="1">
          <mxGeometry x="1175" y="440" width="120" height="60" as="geometry" />
        </mxCell>
        <mxCell id="0dHqTh75lFJwIoMNK_Vf-61" value="" style="endArrow=none;dashed=1;html=1;rounded=0;entryX=0.5;entryY=0.5;entryDx=0;entryDy=0;entryPerimeter=0;" parent="1" source="0dHqTh75lFJwIoMNK_Vf-62" edge="1">
          <mxGeometry width="50" height="50" relative="1" as="geometry">
            <mxPoint x="1232.5" y="830" as="sourcePoint" />
            <mxPoint x="1232.5" y="500" as="targetPoint" />
          </mxGeometry>
        </mxCell>
        <mxCell id="0dHqTh75lFJwIoMNK_Vf-62" value="" style="html=1;points=[];perimeter=orthogonalPerimeter;outlineConnect=0;targetShapes=umlLifeline;portConstraint=eastwest;newEdgeStyle={&quot;edgeStyle&quot;:&quot;elbowEdgeStyle&quot;,&quot;elbow&quot;:&quot;vertical&quot;,&quot;curved&quot;:0,&quot;rounded&quot;:0};" parent="1" vertex="1">
          <mxGeometry x="1225" y="590" width="18" height="210" as="geometry" />
        </mxCell>
        <mxCell id="0dHqTh75lFJwIoMNK_Vf-63" value="BDD" style="rounded=0;whiteSpace=wrap;html=1;" parent="1" vertex="1">
          <mxGeometry x="1385" y="440" width="120" height="60" as="geometry" />
        </mxCell>
        <mxCell id="0dHqTh75lFJwIoMNK_Vf-64" value="" style="endArrow=none;dashed=1;html=1;rounded=0;entryX=0.5;entryY=0.5;entryDx=0;entryDy=0;entryPerimeter=0;" parent="1" source="0dHqTh75lFJwIoMNK_Vf-65" edge="1">
          <mxGeometry width="50" height="50" relative="1" as="geometry">
            <mxPoint x="1442.5" y="830" as="sourcePoint" />
            <mxPoint x="1442.5" y="500" as="targetPoint" />
          </mxGeometry>
        </mxCell>
        <mxCell id="0dHqTh75lFJwIoMNK_Vf-65" value="" style="html=1;points=[];perimeter=orthogonalPerimeter;outlineConnect=0;targetShapes=umlLifeline;portConstraint=eastwest;newEdgeStyle={&quot;edgeStyle&quot;:&quot;elbowEdgeStyle&quot;,&quot;elbow&quot;:&quot;vertical&quot;,&quot;curved&quot;:0,&quot;rounded&quot;:0};" parent="1" vertex="1">
          <mxGeometry x="1435" y="590" width="18" height="210" as="geometry" />
        </mxCell>
        <mxCell id="0dHqTh75lFJwIoMNK_Vf-66" value="" style="endArrow=classic;html=1;rounded=0;" parent="1" target="0dHqTh75lFJwIoMNK_Vf-62" edge="1">
          <mxGeometry width="50" height="50" relative="1" as="geometry">
            <mxPoint x="1030" y="610" as="sourcePoint" />
            <mxPoint x="1185" y="610" as="targetPoint" />
          </mxGeometry>
        </mxCell>
        <mxCell id="0dHqTh75lFJwIoMNK_Vf-67" value="1.1 : Envoie contenu &lt;br&gt;du commentaire" style="text;html=1;align=center;verticalAlign=middle;resizable=0;points=[];autosize=1;strokeColor=none;fillColor=none;" parent="1" vertex="1">
          <mxGeometry x="1055" y="570" width="130" height="40" as="geometry" />
        </mxCell>
        <mxCell id="0dHqTh75lFJwIoMNK_Vf-68" value="Envoie requête table comments" style="text;html=1;align=center;verticalAlign=middle;resizable=0;points=[];autosize=1;strokeColor=none;fillColor=none;" parent="1" vertex="1">
          <mxGeometry x="1244" y="598" width="190" height="30" as="geometry" />
        </mxCell>
        <mxCell id="0dHqTh75lFJwIoMNK_Vf-69" value="" style="endArrow=classic;html=1;rounded=0;" parent="1" target="0dHqTh75lFJwIoMNK_Vf-65" edge="1">
          <mxGeometry width="50" height="50" relative="1" as="geometry">
            <mxPoint x="1245" y="625" as="sourcePoint" />
            <mxPoint x="1295" y="575" as="targetPoint" />
          </mxGeometry>
        </mxCell>
        <mxCell id="0dHqTh75lFJwIoMNK_Vf-70" value="Intertion du commentaire dans la table" style="html=1;align=left;spacingLeft=2;endArrow=block;rounded=0;edgeStyle=orthogonalEdgeStyle;curved=0;rounded=0;" parent="1" edge="1">
          <mxGeometry relative="1" as="geometry">
            <mxPoint x="1453" y="625" as="sourcePoint" />
            <Array as="points">
              <mxPoint x="1483" y="655" />
            </Array>
            <mxPoint x="1458" y="655" as="targetPoint" />
          </mxGeometry>
        </mxCell>
        <mxCell id="0dHqTh75lFJwIoMNK_Vf-105" value="&lt;font style=&quot;font-size: 30px;&quot;&gt;&amp;nbsp;Diagramme de séquence : Poster un commentaire associé à une figure&lt;/font&gt;" style="text;html=1;strokeColor=none;fillColor=none;align=center;verticalAlign=middle;whiteSpace=wrap;rounded=0;" parent="1" vertex="1">
          <mxGeometry x="675" y="230" width="989" height="170" as="geometry" />
        </mxCell>
        <mxCell id="0dHqTh75lFJwIoMNK_Vf-106" value="" style="endArrow=classic;html=1;rounded=0;" parent="1" edge="1">
          <mxGeometry width="50" height="50" relative="1" as="geometry">
            <mxPoint x="1434" y="663" as="sourcePoint" />
            <mxPoint x="1242" y="663" as="targetPoint" />
          </mxGeometry>
        </mxCell>
        <mxCell id="0dHqTh75lFJwIoMNK_Vf-107" value="Renvoie la validation de la requête" style="text;html=1;align=center;verticalAlign=middle;resizable=0;points=[];autosize=1;strokeColor=none;fillColor=none;" parent="1" vertex="1">
          <mxGeometry x="1234" y="633" width="210" height="30" as="geometry" />
        </mxCell>
        <mxCell id="0dHqTh75lFJwIoMNK_Vf-108" value="" style="endArrow=classic;html=1;rounded=0;" parent="1" edge="1">
          <mxGeometry width="50" height="50" relative="1" as="geometry">
            <mxPoint x="1225" y="680" as="sourcePoint" />
            <mxPoint x="1028" y="680" as="targetPoint" />
          </mxGeometry>
        </mxCell>
        <mxCell id="0dHqTh75lFJwIoMNK_Vf-109" value="Affiche le commentaire posté" style="text;html=1;align=center;verticalAlign=middle;resizable=0;points=[];autosize=1;strokeColor=none;fillColor=none;" parent="1" vertex="1">
          <mxGeometry x="1040" y="650" width="180" height="30" as="geometry" />
        </mxCell>
        <mxCell id="0dHqTh75lFJwIoMNK_Vf-110" value="" style="endArrow=classic;html=1;rounded=0;" parent="1" edge="1">
          <mxGeometry width="50" height="50" relative="1" as="geometry">
            <mxPoint x="1010" y="693" as="sourcePoint" />
            <mxPoint x="795" y="693" as="targetPoint" />
          </mxGeometry>
        </mxCell>
        <mxCell id="0dHqTh75lFJwIoMNK_Vf-111" value="2 : Accès à fiche de la figure" style="text;html=1;align=center;verticalAlign=middle;resizable=0;points=[];autosize=1;strokeColor=none;fillColor=none;" parent="1" vertex="1">
          <mxGeometry x="818" y="663" width="170" height="30" as="geometry" />
        </mxCell>
      </root>
    </mxGraphModel>
  </diagram>
</mxfile>
